<svg xmlns="http://www.w3.org/2000/svg" width="700" height="500"><rect width="700" height="500" x="0" y="0" fill="#FFFFFF" id="background"/><g transform="translate(10,10)" id="viz"><g><rect x="0" y="0" height="4.414983116737977" width="5" fill="black"><title>Coal reserves: 63.96</title></rect><rect x="135" y="235.8526127390989" height="6.581058323167639" width="5" fill="black"><title>Coal: 95.34</title></rect><rect x="0" y="12.995257976758172" height="2.1653849338972826" width="5" fill="black"><title>Coal imports: 31.37</title></rect><rect x="0" y="352.934475549997" height="7.43423517311885" width="5" fill="black"><title>Oil reserves: 107.7</title></rect><rect x="135" y="263.94935388020855" height="60.74950502468329" width="5" fill="black"><title>Oil: 880.08</title></rect><rect x="0" y="278.6918387695054" height="53.314579579032284" width="5" fill="black"><title>Oil imports: 772.37</title></rect><rect x="0" y="225.93958516062273" height="5.676111033292159" width="5" fill="black"><title>Gas reserves: 82.23</title></rect><rect x="135" y="81.17270505025236" height="146.09963282882632" width="5" fill="black"><title>Natural Gas: 2116.55</title></rect><rect x="0" y="76.93578850506823" height="140.42352179553433" width="5" fill="black"><title>Gas imports: 2034.32</title></rect><rect x="0" y="268.8925426174028" height="1.2190212920824024" width="5" fill="black"><title>UK land based bioenergy: 17.66</title></rect><rect x="135" y="228.2402586585025" height="6.58658050342612" width="5" fill="black"><title>Bio-conversion: 95.42000000000002</title></rect><rect x="0" y="257.7292679414299" height="2.5829998159526895" width="5" fill="black"><title>Agricultural 'waste': 37.42</title></rect><rect x="0" y="340.58669320855785" height="3.7675074814189315" width="5" fill="black"><title>Other waste: 54.580000000000005</title></rect><rect x="270" y="331.6825735476648" height="9.647939184278641" width="5" fill="black"><title>Solid: 139.77</title></rect><rect x="270" y="349.9107875919636" height="61.28377596470142" width="5" fill="black"><title>Liquid: 887.82</title></rect><rect x="270" y="95.04085345033184" height="148.83242178429308" width="5" fill="black"><title>Gas: 2156.1400000000003</title></rect><rect x="675" y="281.76415236716497" height="46.66242318503538" width="5" fill="black"><title>Losses: 676</title></rect><rect x="405" y="86.24956508173335" height="81.8394017047483" width="5" fill="black"><title>Thermal generation: 1185.6100000000001</title></rect><rect x="540" y="242.08393274805636" height="1.1140998671693296" width="5" fill="black"><title>District heating: 16.14</title></rect><rect x="540" y="246.47505799385848" height="40.1345158468566" width="5" fill="black"><title>Electricity grid: 581.4300000000001</title></rect><rect x="0" y="249.14347090115112" height="0.005522180258594744" width="5" fill="black"><title>Wind: 0.08</title></rect><rect x="0" y="240.19597105393507" height="0.3672249871958684" width="5" fill="black"><title>Hydro: 5.32</title></rect><rect x="675" y="214.5203760751416" height="58.66350143200316" width="5" fill="black"><title>Industry: 849.8599999999999</title></rect><rect x="675" y="337.00685041222056" height="39.93847844767697" width="5" fill="black"><title>Heating and cooling - homes: 578.59</title></rect><rect x="675" y="385.5256037199177" height="11.934121811332489" width="5" fill="black"><title>Heating and cooling - commercial: 172.89</title></rect><rect x="675" y="406.0400003912704" height="7.691706827675375" width="5" fill="black"><title>Lighting &amp; appliances - homes: 111.43</title></rect><rect x="675" y="431.6632913575909" height="6.997982932690661" width="5" fill="black"><title>Lighting &amp; appliances - commercial: 101.38</title></rect><rect x="675" y="422.31198207896597" height="0.7710344186046996" width="5" fill="black"><title>Agriculture: 11.169999999999998</title></rect><rect x="675" y="447.24154915030175" height="23.182802998068325" width="5" fill="black"><title>Road transport: 335.84999999999997</title></rect><rect x="675" y="479.0046270083903" height="0.99537299160977" width="5" fill="black"><title>Rail transport: 14.420000000000002</title></rect><rect x="405" y="320.76870180381434" height="1.0202228027733895" width="5" fill="black"><title>Domestic aviation: 14.78</title></rect><rect x="405" y="330.36919946660794" height="1.5524229251944348" width="5" fill="black"><title>National navigation: 22.49</title></rect><rect x="405" y="259.46477743114804" height="13.017159414547336" width="5" fill="black"><title>International aviation: 188.58</title></rect><rect x="405" y="327.72117797895606" height="8.939029293582905" width="5" fill="black"><title>International shipping: 129.5</title></rect></g><g class="links" fill="none" stroke-opacity="1"><path d="M5,2.2074915583689885C70,2.2074915583689885,70,238.06010429746783,135,238.06010429746783" stroke="rgb(240, 112, 74)" style="stroke-width: 4.41498; mix-blend-mode: multiply;"><title>Coal reserves → Coal: 63.96</title></path><path d="M5,14.077950443706811C70,14.077950443706811,70,241.3502883227855,135,241.3502883227855" stroke="rgb(228, 86, 73)" style="stroke-width: 2.16538; mix-blend-mode: multiply;"><title>Coal imports → Coal: 31.37</title></path><path d="M5,356.6515931365564C70,356.6515931365564,70,320.98105104580014,135,320.98105104580014" stroke="rgb(137, 207, 165)" style="stroke-width: 7.43424; mix-blend-mode: multiply;"><title>Oil reserves → Oil: 107.7</title></path><path d="M5,305.34912855902155C70,305.34912855902155,70,290.6066436697247,135,290.6066436697247" stroke="rgb(169, 221, 162)" style="stroke-width: 53.3146; mix-blend-mode: multiply;"><title>Oil imports → Oil: 772.37</title></path><path d="M5,228.77764067726875C70,228.77764067726875,70,224.43428236243258,135,224.43428236243258" stroke="rgb(254, 238, 163)" style="stroke-width: 5.67611; mix-blend-mode: multiply;"><title>Gas reserves → Natural Gas: 82.23</title></path><path d="M5,147.1475494028353C70,147.1475494028353,70,151.3844659480195,135,151.3844659480195" stroke="rgb(254, 221, 141)" style="stroke-width: 140.424; mix-blend-mode: multiply;"><title>Gas imports → Natural Gas: 2034.32</title></path><path d="M5,269.502053263444C70,269.502053263444,70,231.4327691204964,135,231.4327691204964" stroke="rgb(74, 108, 174)" style="stroke-width: 1.21902; mix-blend-mode: multiply;"><title>UK land based bioenergy → Bio-conversion: 17.66</title></path><path d="M5,259.0207678494063C70,259.0207678494063,70,229.53175856647889,135,229.53175856647889" stroke="rgb(158, 1, 66)" style="stroke-width: 2.583; mix-blend-mode: multiply;"><title>Agricultural 'waste' → Bio-conversion: 37.42</title></path><path d="M5,341.97897290625343C70,341.97897290625343,70,233.43455946423308,135,233.43455946423308" stroke="rgb(105, 189, 169)" style="stroke-width: 2.78456; mix-blend-mode: multiply;"><title>Other waste → Bio-conversion: 40.34</title></path><path d="M5,343.86272664696287C137.5,343.86272664696287,137.5,340.83903868892946,270,340.83903868892946" stroke="rgb(105, 189, 169)" style="stroke-width: 1; mix-blend-mode: multiply;"><title>Other waste → Solid: 14.24</title></path><path d="M140,239.14314190068265C205,239.14314190068265,205,337.05703548433166,270,337.05703548433166" stroke="rgb(209, 60, 75)" style="stroke-width: 6.58106; mix-blend-mode: multiply;"><title>Coal → Solid: 95.34</title></path><path d="M140,294.32410639255016C205,294.32410639255016,205,380.8198110443233,270,380.8198110443233" stroke="rgb(200, 233, 159)" style="stroke-width: 60.7495; mix-blend-mode: multiply;"><title>Oil → Liquid: 880.08</title></path><path d="M140,154.22252146466553C205,154.22252146466553,205,168.090669864745,270,168.090669864745" stroke="rgb(224, 243, 161)" style="stroke-width: 146.1; mix-blend-mode: multiply;"><title>Natural Gas → Gas: 2116.55</title></path><path d="M140,233.25060183436915C205,233.25060183436915,205,332.7245399352064,270,332.7245399352064" stroke="rgb(185, 31, 72)" style="stroke-width: 2.08393; mix-blend-mode: multiply;"><title>Bio-conversion → Solid: 30.19</title></path><path d="M140,234.55970369191965C205,234.55970369191965,205,350.17792306197254,270,350.17792306197254" stroke="rgb(185, 31, 72)" style="stroke-width: 1; mix-blend-mode: multiply;"><title>Bio-conversion → Liquid: 7.74</title></path><path d="M140,229.60665313623588C205,229.60665313623588,205,242.50688075689155,270,242.50688075689155" stroke="rgb(185, 31, 72)" style="stroke-width: 2.73279; mix-blend-mode: multiply;"><title>Bio-conversion → Gas: 39.59</title></path><path d="M140,231.59084153039842C407.5,231.59084153039842,407.5,327.8087816357712,675,327.8087816357712" stroke="rgb(185, 31, 72)" style="stroke-width: 1.23559; mix-blend-mode: multiply;"><title>Bio-conversion → Losses: 17.9</title></path><path d="M275,332.8153107732069C340,332.8153107732069,340,166.95622956093945,405,166.95622956093945" stroke="rgb(78, 164, 176)" style="stroke-width: 2.26547; mix-blend-mode: multiply;"><title>Solid → Thermal generation: 32.82</title></path><path d="M275,134.8278170771639C340,134.8278170771639,340,126.03652870856541,405,126.03652870856541" stroke="rgb(253, 198, 118)" style="stroke-width: 79.5739; mix-blend-mode: multiply;"><title>Gas → Thermal generation: 1152.79</title></path><path d="M410,127.77014817349465C475,127.77014817349465,475,242.64098268164102,540,242.64098268164102" stroke="rgb(66, 136, 181)" style="stroke-width: 1.1141; mix-blend-mode: multiply;"><title>Thermal generation → District heating: 16.14</title></path><path d="M410,148.20808244678042C475,148.20808244678042,475,266.3559423335596,540,266.3559423335596" stroke="rgb(66, 136, 181)" style="stroke-width: 39.7618; mix-blend-mode: multiply;"><title>Thermal generation → Electricity grid: 576.03</title></path><path d="M410,106.73133166082167C542.5,106.73133166082167,542.5,302.24591894625325,675,302.24591894625325" stroke="rgb(66, 136, 181)" style="stroke-width: 40.9635; mix-blend-mode: multiply;"><title>Thermal generation → Losses: 593.44</title></path><path d="M5,249.14623199128042C272.5,249.14623199128042,272.5,286.6068127505859,540,286.6068127505859" stroke="rgb(94, 79, 162)" style="stroke-width: 1; mix-blend-mode: multiply;"><title>Wind → Electricity grid: 0.08</title></path><path d="M5,240.379583547533C272.5,240.379583547533,272.5,286.42043916685867,540,286.42043916685867" stroke="rgb(251, 248, 176)" style="stroke-width: 1; mix-blend-mode: multiply;"><title>Hydro → Electricity grid: 5.32</title></path><path d="M545,263.60037438452616C610,263.60037438452616,610,324.1272130846265,675,324.1272130846265" stroke="rgb(252, 172, 99)" style="stroke-width: 2.79906; mix-blend-mode: multiply;"><title>Electricity grid → Losses: 40.55</title></path><path d="M545,242.64098268164102C610,242.64098268164102,610,235.8263280578236,675,235.8263280578236" stroke="rgb(248, 142, 83)" style="stroke-width: 1.1141; mix-blend-mode: multiply;"><title>District heating → Industry: 16.14</title></path><path d="M545,267.0931533980805C610,267.0931533980805,610,339.10010186649004,675,339.10010186649004" stroke="rgb(252, 172, 99)" style="stroke-width: 4.1865; mix-blend-mode: multiply;"><title>Electricity grid → Heating and cooling - homes: 60.65</title></path><path d="M275,214.90391759809293C475,214.90391759809293,475,359.0693410903285,675,359.0693410903285" stroke="rgb(253, 198, 118)" style="stroke-width: 35.752; mix-blend-mode: multiply;"><title>Gas → Heating and cooling - homes: 517.94</title></path><path d="M545,270.27047786436333C610,270.27047786436333,610,386.609676731931,675,386.609676731931" stroke="rgb(252, 172, 99)" style="stroke-width: 2.16815; mix-blend-mode: multiply;"><title>Electricity grid → Heating and cooling - commercial: 31.41</title></path><path d="M275,237.6628932613147C475,237.6628932613147,475,392.5767376375972,675,392.5767376375972" stroke="rgb(253, 198, 118)" style="stroke-width: 9.76598; mix-blend-mode: multiply;"><title>Gas → Heating and cooling - commercial: 141.48</title></path><path d="M545,274.9232598684865C610,274.9232598684865,610,409.6087093833803,675,409.6087093833803" stroke="rgb(252, 172, 99)" style="stroke-width: 7.13742; mix-blend-mode: multiply;"><title>Electricity grid → Lighting &amp; appliances - homes: 103.4</title></path><path d="M275,242.82302557669541C475,242.82302557669541,475,413.454562797218,675,413.454562797218" stroke="rgb(253, 198, 118)" style="stroke-width: 1; mix-blend-mode: multiply;"><title>Gas → Lighting &amp; appliances - homes: 8.03</title></path><path d="M545,281.987163828014C610,281.987163828014,610,434.84993450306,675,434.84993450306" stroke="rgb(252, 172, 99)" style="stroke-width: 6.37329; mix-blend-mode: multiply;"><title>Electricity grid → Lighting &amp; appliances - commercial: 92.33</title></path><path d="M275,243.5588560961518C475,243.5588560961518,475,438.3489259694054,675,438.3489259694054" stroke="rgb(253, 198, 118)" style="stroke-width: 1; mix-blend-mode: multiply;"><title>Gas → Lighting &amp; appliances - commercial: 9.05</title></path><path d="M545,254.33795240954987C610,254.33795240954987,610,244.24627240709964,675,244.24627240709964" stroke="rgb(252, 172, 99)" style="stroke-width: 15.7258; mix-blend-mode: multiply;"><title>Electricity grid → Industry: 227.82</title></path><path d="M275,337.60821810139157C475,337.60821810139157,475,255.76933692543378,675,255.76933692543378" stroke="rgb(78, 164, 176)" style="stroke-width: 7.32034; mix-blend-mode: multiply;"><title>Solid → Industry: 106.05</title></path><path d="M275,381.3168072675959C475,381.3168072675959,475,266.3066922676107,675,266.3066922676107" stroke="rgb(241, 249, 171)" style="stroke-width: 13.7544; mix-blend-mode: multiply;"><title>Liquid → Industry: 199.26</title></path><path d="M275,184.98923172854452C475,184.98923172854452,475,224.89482709969025,675,224.89482709969025" stroke="rgb(253, 198, 118)" style="stroke-width: 20.7489; mix-blend-mode: multiply;"><title>Gas → Industry: 300.59</title></path><path d="M545,278.6462447715707C610,278.6462447715707,610,422.4662579899402,675,422.4662579899402" stroke="rgb(252, 172, 99)" style="stroke-width: 1; mix-blend-mode: multiply;"><title>Electricity grid → Agriculture: 4.47</title></path><path d="M275,341.2991053317227C475,341.2991053317227,475,422.79758880545523,675,422.79758880545523" stroke="rgb(78, 164, 176)" style="stroke-width: 1; mix-blend-mode: multiply;"><title>Solid → Agriculture: 0.89</title></path><path d="M275,388.3213477893436C475,388.3213477893436,475,422.95566121535717,675,422.95566121535717" stroke="rgb(241, 249, 171)" style="stroke-width: 1; mix-blend-mode: multiply;"><title>Liquid → Agriculture: 3.69</title></path><path d="M275,243.17333888684934C475,243.17333888684934,475,422.6937027893406,675,422.6937027893406" stroke="rgb(253, 198, 118)" style="stroke-width: 1; mix-blend-mode: multiply;"><title>Gas → Agriculture: 2.12</title></path><path d="M545,285.6514755658508C610,285.6514755658508,610,447.7192177426693,675,447.7192177426693" stroke="rgb(252, 172, 99)" style="stroke-width: 1; mix-blend-mode: multiply;"><title>Electricity grid → Road transport: 13.84</title></path><path d="M275,399.56243597822373C475,399.56243597822373,475,459.31061924170336,675,459.31061924170336" stroke="rgb(241, 249, 171)" style="stroke-width: 22.2275; mix-blend-mode: multiply;"><title>Liquid → Road transport: 322.01</title></path><path d="M545,286.3686687269343C610,286.3686687269343,610,479.2441515771063,675,479.2441515771063" stroke="rgb(252, 172, 99)" style="stroke-width: 1; mix-blend-mode: multiply;"><title>Electricity grid → Rail transport: 6.94</title></path><path d="M275,410.93433081197907C475,410.93433081197907,475,479.74183807291126,675,479.74183807291126" stroke="rgb(241, 249, 171)" style="stroke-width: 1; mix-blend-mode: multiply;"><title>Liquid → Rail transport: 7.48</title></path><path d="M275,363.4380584078976C340,363.4380584078976,340,321.27881320520106,405,321.27881320520106" stroke="rgb(241, 249, 171)" style="stroke-width: 1.02022; mix-blend-mode: multiply;"><title>Liquid → Domestic aviation: 14.78</title></path><path d="M275,364.7243812718815C340,364.7243812718815,340,331.1454109292051,405,331.1454109292051" stroke="rgb(241, 249, 171)" style="stroke-width: 1.55242; mix-blend-mode: multiply;"><title>Liquid → National navigation: 22.49</title></path><path d="M275,356.41936729923725C340,356.41936729923725,340,265.9733571384217,405,265.9733571384217" stroke="rgb(241, 249, 171)" style="stroke-width: 13.0172; mix-blend-mode: multiply;"><title>Liquid → International aviation: 188.58</title></path><path d="M275,369.97010738127017C340,369.97010738127017,340,332.19069262574754,405,332.19069262574754" stroke="rgb(241, 249, 171)" style="stroke-width: 8.93903; mix-blend-mode: multiply;"><title>Liquid → International shipping: 129.5</title></path><path d="M275,196.19580629080863C475,196.19580629080863,475,326.35886418162676,675,326.35886418162676" stroke="rgb(253, 198, 118)" style="stroke-width: 1.66425; mix-blend-mode: multiply;"><title>Gas → Losses: 24.11</title></path></g><g><text x="9" y="2.2074915583689885" text-anchor="start"><tspan alignment-baseline="middle" style="font-family: Arial, sans-serif; font-size: 10px; fill: black; font-weight: bold;">Coal reserves</tspan></text><text x="144" y="239.14314190068274" text-anchor="start"><tspan alignment-baseline="middle" style="font-family: Arial, sans-serif; font-size: 10px; fill: black; font-weight: bold;">Coal</tspan></text><text x="9" y="14.077950443706813" text-anchor="start"><tspan alignment-baseline="middle" style="font-family: Arial, sans-serif; font-size: 10px; fill: black; font-weight: bold;">Coal imports</tspan></text><text x="9" y="356.6515931365564" text-anchor="start"><tspan alignment-baseline="middle" style="font-family: Arial, sans-serif; font-size: 10px; fill: black; font-weight: bold;">Oil reserves</tspan></text><text x="144" y="294.3241063925502" text-anchor="start"><tspan alignment-baseline="middle" style="font-family: Arial, sans-serif; font-size: 10px; fill: black; font-weight: bold;">Oil</tspan></text><text x="9" y="305.34912855902155" text-anchor="start"><tspan alignment-baseline="middle" style="font-family: Arial, sans-serif; font-size: 10px; fill: black; font-weight: bold;">Oil imports</tspan></text><text x="9" y="228.7776406772688" text-anchor="start"><tspan alignment-baseline="middle" style="font-family: Arial, sans-serif; font-size: 10px; fill: black; font-weight: bold;">Gas reserves</tspan></text><text x="144" y="154.22252146466553" text-anchor="start"><tspan alignment-baseline="middle" style="font-family: Arial, sans-serif; font-size: 10px; fill: black; font-weight: bold;">Natural Gas</tspan></text><text x="9" y="147.1475494028354" text-anchor="start"><tspan alignment-baseline="middle" style="font-family: Arial, sans-serif; font-size: 10px; fill: black; font-weight: bold;">Gas imports</tspan></text><text x="9" y="269.502053263444" text-anchor="start"><tspan alignment-baseline="middle" style="font-family: Arial, sans-serif; font-size: 10px; fill: black; font-weight: bold;">UK land based bioenergy</tspan></text><text x="144" y="231.5335489102156" text-anchor="start"><tspan alignment-baseline="middle" style="font-family: Arial, sans-serif; font-size: 10px; fill: black; font-weight: bold;">Bio-conversion</tspan></text><text x="9" y="259.02076784940624" text-anchor="start"><tspan alignment-baseline="middle" style="font-family: Arial, sans-serif; font-size: 10px; fill: black; font-weight: bold;">Agricultural 'waste'</tspan></text><text x="9" y="342.4704469492673" text-anchor="start"><tspan alignment-baseline="middle" style="font-family: Arial, sans-serif; font-size: 10px; fill: black; font-weight: bold;">Other waste</tspan></text><text x="279" y="336.5065431398041" text-anchor="start"><tspan alignment-baseline="middle" style="font-family: Arial, sans-serif; font-size: 10px; fill: black; font-weight: bold;">Solid</tspan></text><text x="279" y="380.5526755743143" text-anchor="start"><tspan alignment-baseline="middle" style="font-family: Arial, sans-serif; font-size: 10px; fill: black; font-weight: bold;">Liquid</tspan></text><text x="279" y="169.45706434247836" text-anchor="start"><tspan alignment-baseline="middle" style="font-family: Arial, sans-serif; font-size: 10px; fill: black; font-weight: bold;">Gas</tspan></text><text x="671" y="305.0953639596827" text-anchor="end"><tspan alignment-baseline="middle" style="font-family: Arial, sans-serif; font-size: 10px; fill: black; font-weight: bold;">Losses</tspan></text><text x="401" y="127.1692659341075" text-anchor="end"><tspan alignment-baseline="middle" style="font-family: Arial, sans-serif; font-size: 10px; fill: black; font-weight: bold;">Thermal generation</tspan></text><text x="536" y="242.64098268164102" text-anchor="end"><tspan alignment-baseline="middle" style="font-family: Arial, sans-serif; font-size: 10px; fill: black; font-weight: bold;">District heating</tspan></text><text x="536" y="266.54231591728677" text-anchor="end"><tspan alignment-baseline="middle" style="font-family: Arial, sans-serif; font-size: 10px; fill: black; font-weight: bold;">Electricity grid</tspan></text><text x="9" y="249.14623199128042" text-anchor="start"><tspan alignment-baseline="middle" style="font-family: Arial, sans-serif; font-size: 10px; fill: black; font-weight: bold;">Wind</tspan></text><text x="9" y="240.379583547533" text-anchor="start"><tspan alignment-baseline="middle" style="font-family: Arial, sans-serif; font-size: 10px; fill: black; font-weight: bold;">Hydro</tspan></text><text x="671" y="243.85212679114318" text-anchor="end"><tspan alignment-baseline="middle" style="font-family: Arial, sans-serif; font-size: 10px; fill: black; font-weight: bold;">Industry</tspan></text><text x="671" y="356.97608963605904" text-anchor="end"><tspan alignment-baseline="middle" style="font-family: Arial, sans-serif; font-size: 10px; fill: black; font-weight: bold;">Heating and cooling - homes</tspan></text><text x="671" y="391.4926646255839" text-anchor="end"><tspan alignment-baseline="middle" style="font-family: Arial, sans-serif; font-size: 10px; fill: black; font-weight: bold;">Heating and cooling - commercial</tspan></text><text x="671" y="409.88585380510807" text-anchor="end"><tspan alignment-baseline="middle" style="font-family: Arial, sans-serif; font-size: 10px; fill: black; font-weight: bold;">Lighting &amp; appliances - homes</tspan></text><text x="671" y="435.1622828239362" text-anchor="end"><tspan alignment-baseline="middle" style="font-family: Arial, sans-serif; font-size: 10px; fill: black; font-weight: bold;">Lighting &amp; appliances - commercial</tspan></text><text x="671" y="422.6974992882683" text-anchor="end"><tspan alignment-baseline="middle" style="font-family: Arial, sans-serif; font-size: 10px; fill: black; font-weight: bold;">Agriculture</tspan></text><text x="671" y="458.8329506493359" text-anchor="end"><tspan alignment-baseline="middle" style="font-family: Arial, sans-serif; font-size: 10px; fill: black; font-weight: bold;">Road transport</tspan></text><text x="671" y="479.5023135041952" text-anchor="end"><tspan alignment-baseline="middle" style="font-family: Arial, sans-serif; font-size: 10px; fill: black; font-weight: bold;">Rail transport</tspan></text><text x="401" y="321.278813205201" text-anchor="end"><tspan alignment-baseline="middle" style="font-family: Arial, sans-serif; font-size: 10px; fill: black; font-weight: bold;">Domestic aviation</tspan></text><text x="401" y="331.1454109292051" text-anchor="end"><tspan alignment-baseline="middle" style="font-family: Arial, sans-serif; font-size: 10px; fill: black; font-weight: bold;">National navigation</tspan></text><text x="401" y="265.9733571384217" text-anchor="end"><tspan alignment-baseline="middle" style="font-family: Arial, sans-serif; font-size: 10px; fill: black; font-weight: bold;">International aviation</tspan></text><text x="401" y="332.1906926257475" text-anchor="end"><tspan alignment-baseline="middle" style="font-family: Arial, sans-serif; font-size: 10px; fill: black; font-weight: bold;">International shipping</tspan></text></g></g></svg>