<svg xmlns="http://www.w3.org/2000/svg" width="800" height="500"><rect width="800" height="500" x="0" y="0" fill="#FFFFFF" id="background"/><g transform="translate(50,10)" id="viz"><g id="axis"><g transform="translate(0,430)" fill="none" font-size="10" font-family="sans-serif" text-anchor="middle"><path class="domain" stroke="currentColor" d="M0,6V0H500V6"/><g class="tick" opacity="1" transform="translate(0,0)"><line stroke="currentColor" y2="6"/><text fill="currentColor" y="9" dy="0.71em">1800</text></g><g class="tick" opacity="1" transform="translate(30.661931101964875,0)"><line stroke="currentColor" y2="6"/><text fill="currentColor" y="9" dy="0.71em">1810</text></g><g class="tick" opacity="1" transform="translate(90.32956619230625,0)"><line stroke="currentColor" y2="6"/><text fill="currentColor" y="9" dy="0.71em">1850</text></g><g class="tick" opacity="1" transform="translate(170.66483637298901,0)"><line stroke="currentColor" y2="6"/><text fill="currentColor" y="9" dy="0.71em">1880</text></g><g class="tick" opacity="1" transform="translate(240.99449367066515,0)"><line stroke="currentColor" y2="6"/><text fill="currentColor" y="9" dy="0.71em">1910</text></g><g class="tick" opacity="1" transform="translate(350.3294596386345,0)"><line stroke="currentColor" y2="6"/><text fill="currentColor" y="9" dy="0.71em">2000</text></g><g class="tick" opacity="1" transform="translate(430.66472981931724,0)"><line stroke="currentColor" y2="6"/><text fill="currentColor" y="9" dy="0.71em">2010</text></g>><g class="tick" opacity="1" transform="translate(500,0)"><line stroke="currentColor" y2="6"/><text fill="currentColor" y="9" dy="0.71em">2020</text></g></g><g fill="none" font-size="10" font-family="sans-serif" text-anchor="end"><path class="domain" stroke="currentColor" d="M0,0V430"/><g class="tick" opacity="1" transform="translate(0,215)"><line stroke="currentColor" x2="500" style="stroke: rgb(204, 204, 204);"/><text fill="currentColor" x="-3" dy="0.32em"/></g><text x="4" text-anchor="start" dominant-baseline="hanging" style="font-family: Arial, sans-serif; font-size: 12px; fill: rgb(123, 123, 123); font-weight: bold;"/></g></g><g id="visualization"><g><g id="circles"><circle id="" cx="18.365754980958883" cy="216.5365330321349" r="5" style="fill: rgb(214, 66, 75);"/><circle id="" cx="27.756845522703976" cy="209.06575540197133" r="5" style="fill: rgb(214, 66, 75);"/><circle id="" cx="29.53116141158689" cy="220.93407352166733" r="5" style="fill: rgb(214, 66, 75);"/><circle id="" cx="38.92225260353021" cy="213.46363804422654" r="5" style="fill: rgb(214, 66, 75);"/><circle id="" cx="96.40166392325963" cy="213.16690799099655" r="5" style="fill: rgb(214, 66, 75);"/><circle id="" cx="108.1412319677199" cy="215.63553631567186" r="5" style="fill: rgb(214, 66, 75);"/><circle id="" cx="145.07539286171263" cy="226.7602355321658" r="5" style="fill: rgb(214, 66, 75);"/><circle id="" cx="125.05580221376303" cy="202.77427193889184" r="14.249505911485286" style="fill: rgb(214, 66, 75);"/><circle id="" cx="134.73400111864677" cy="238.74155993645167" r="8.831270793787322" style="fill: rgb(214, 66, 75);"/><circle id="" cx="118.5624123831833" cy="227.5512766838906" r="8.831270793787322" style="fill: rgb(214, 66, 75);"/><circle id="" cx="142.5233114201757" cy="214.84453500000623" r="5" style="fill: rgb(214, 66, 75);"/><circle id="" cx="154.61326513951937" cy="181.98015485798203" r="5" style="fill: rgb(214, 66, 75);"/><circle id="" cx="133.6979875233478" cy="222.95010971010925" r="5" style="fill: rgb(214, 66, 75);"/><circle id="" cx="161.63483480601008" cy="235.72233213928567" r="11.771108272115907" style="fill: rgb(214, 66, 75);"/><circle id="" cx="146.0315187676982" cy="191.90070547403323" r="5" style="fill: rgb(214, 66, 75);"/><circle id="" cx="169.11682617413055" cy="214.36745524808114" r="8.831270793787322" style="fill: rgb(214, 66, 75);"/><circle id="" cx="147.26651788824557" cy="203.83946768708248" r="5" style="fill: rgb(214, 66, 75);"/><circle id="" cx="153.8778916875786" cy="218.62478590922382" r="5" style="fill: rgb(214, 66, 75);"/><circle id="" cx="161.21920044420847" cy="196.3640095820124" r="8.831270793787322" style="fill: rgb(214, 66, 75);"/><circle id="" cx="178.42254273797369" cy="186.84286722994756" r="8.831270793787322" style="fill: rgb(214, 66, 75);"/><circle id="" cx="197.30646323537192" cy="192.32405000082122" r="8.831270793787322" style="fill: rgb(214, 66, 75);"/><circle id="" cx="184.69163741814847" cy="217.03857690438434" r="5" style="fill: rgb(214, 66, 75);"/><circle id="" cx="179.718081107416" cy="202.6193922643194" r="5" style="fill: rgb(214, 66, 75);"/><circle id="" cx="196.6852099414959" cy="217.43303206900703" r="5" style="fill: rgb(214, 66, 75);"/><circle id="" cx="202.9383497387242" cy="207.18980385552302" r="5" style="fill: rgb(214, 66, 75);"/><circle id="" cx="183.86746947333572" cy="242.05941460718324" r="8.831270793787322" style="fill: rgb(214, 66, 75);"/><circle id="" cx="190.34815943960007" cy="227.61256303435357" r="5" style="fill: rgb(214, 66, 75);"/><circle id="" cx="203.6591355094097" cy="236.180642792055" r="8.831270793787322" style="fill: rgb(214, 66, 75);"/><circle id="" cx="178.36203550344536" cy="227.21482945443054" r="5" style="fill: rgb(214, 66, 75);"/><circle id="" cx="221.8960833380452" cy="228.8266467826312" r="8.831270793787322" style="fill: rgb(214, 66, 75);"/><circle id="" cx="226.04928034392185" cy="213.5501009820718" r="5" style="fill: rgb(214, 66, 75);"/><circle id="" cx="190.95268362962645" cy="206.81256179120268" r="5" style="fill: rgb(214, 66, 75);"/><circle id="" cx="211.7468063496342" cy="199.04853562912982" r="5" style="fill: rgb(214, 66, 75);"/><circle id="" cx="212.23540362906303" cy="187.06010876065594" r="5" style="fill: rgb(214, 66, 75);"/><circle id="" cx="208.1368857407879" cy="220.99586780807974" r="5" style="fill: rgb(214, 66, 75);"/><circle id="" cx="214.38541104651694" cy="210.75106760572388" r="5" style="fill: rgb(214, 66, 75);"/><circle id="" cx="223.4171391754988" cy="201.84238969298892" r="5" style="fill: rgb(214, 66, 75);"/><circle id="" cx="240.9645166590358" cy="218.83507654672442" r="8.831270793787322" style="fill: rgb(214, 66, 75);"/><circle id="" cx="335.15733301495084" cy="232.88962625182742" r="5" style="fill: rgb(214, 66, 75);"/><circle id="" cx="355.9483513356178" cy="228.65288589887368" r="5" style="fill: rgb(254, 237, 161);"/><circle id="" cx="445.1337877997568" cy="203.86398756218944" r="8.831270793787322" style="fill: rgb(240, 248, 169);"/><circle id="" cx="346.65791765533555" cy="236.26859895925887" r="5" style="fill: rgb(240, 248, 169);"/><circle id="" cx="335.31002495438787" cy="216.20999742202943" r="5" style="fill: rgb(240, 248, 169);"/><circle id="" cx="347.2508661885908" cy="251.83830642690998" r="5" style="fill: rgb(240, 248, 169);"/><circle id="" cx="356.0399214164032" cy="243.71324492822967" r="5" style="fill: rgb(240, 248, 169);"/><circle id="" cx="410.1493660788213" cy="173.03933526226714" r="5" style="fill: rgb(254, 237, 161);"/><circle id="" cx="402.708733769721" cy="134.46600323747776" r="5" style="fill: rgb(244, 125, 77);"/><circle id="" cx="383.64853798214835" cy="211.08879410683772" r="5" style="fill: rgb(253, 190, 112);"/><circle id="" cx="361.5898287766918" cy="258.53958074901806" r="8.831270793787322" style="fill: rgb(244, 125, 77);"/><circle id="" cx="413.21161234652897" cy="211.51660793988157" r="8.831270793787322" style="fill: rgb(253, 190, 112);"/><circle id="" cx="415.53719776496337" cy="261.71322380356105" r="5" style="fill: rgb(158, 1, 66);"/><circle id="" cx="358.2206245211699" cy="201.5278712658944" r="20.22238648052659" style="fill: rgb(253, 190, 112);"/><circle id="" cx="359.02384319262154" cy="274.1538028277707" r="5" style="fill: rgb(244, 125, 77);"/><circle id="" cx="408.1888470000842" cy="271.15470720208464" r="5" style="fill: rgb(67, 143, 180);"/><circle id="" cx="380.2498498626129" cy="236.0388642720856" r="18.40706394451029" style="fill: rgb(253, 190, 112);"/><circle id="" cx="395.38781293290805" cy="190.9148529349949" r="16.433018064881967" style="fill: rgb(244, 125, 77);"/><circle id="" cx="400.76027285546286" cy="296.3843969798425" r="8.831270793787322" style="fill: rgb(158, 1, 66);"/><circle id="" cx="414.1520792430799" cy="304.8191842901887" r="5" style="fill: rgb(240, 248, 169);"/><circle id="" cx="400.82999659218007" cy="280.55897868820824" r="5" style="fill: rgb(190, 229, 160);"/><circle id="" cx="417.1358075349449" cy="238.3272101801999" r="16.433018064881967" style="fill: rgb(253, 190, 112);"/><circle id="" cx="423.4567004470911" cy="285.72185911767053" r="14.249505911485286" style="fill: rgb(244, 125, 77);"/><circle id="" cx="429.0265838448965" cy="211.05252334516007" r="5" style="fill: rgb(158, 1, 66);"/><circle id="" cx="415.9160021708287" cy="162.93093612538738" r="5" style="fill: rgb(240, 248, 169);"/><circle id="" cx="393.6726605463622" cy="156.07992899338157" r="16.433018064881967" style="fill: rgb(244, 125, 77);"/><circle id="" cx="433.2017834634858" cy="311.98235430828186" r="11.771108272115907" style="fill: rgb(253, 190, 112);"/><circle id="" cx="454.25656688484884" cy="320.21277722695606" r="8.831270793787322" style="fill: rgb(158, 1, 66);"/><circle id="" cx="476.92478397718895" cy="308.41335589678675" r="8.831270793787322" style="fill: rgb(94, 79, 162);"/><circle id="" cx="422.02029276013735" cy="174.2136549032159" r="5" style="fill: rgb(254, 237, 161);"/><circle id="" cx="433.5620381935756" cy="254.75170438856088" r="5" style="fill: rgb(190, 229, 160);"/><circle id="" cx="428.83578376031807" cy="126.69975168719084" r="20.22238648052659" style="fill: rgb(244, 125, 77);"/><circle id="" cx="380.2318383840374" cy="275.317316081027" r="14.249505911485286" style="fill: rgb(158, 1, 66);"/><circle id="" cx="455.6240628967684" cy="295.1832285668881" r="14.249505911485286" style="fill: rgb(190, 229, 160);"/><circle id="" cx="373.59241112409234" cy="174.5239340838489" r="8.831270793787322" style="fill: rgb(253, 190, 112);"/><circle id="" cx="490.21976341775934" cy="242.25131371493305" r="8.831270793787322" style="fill: rgb(67, 143, 180);"/><circle id="" cx="400.9937208561486" cy="221.36988454659965" r="5" style="fill: rgb(254, 237, 161);"/><circle id="" cx="481.4680366481972" cy="128.79286243591113" r="21.91204749905993" style="fill: rgb(244, 125, 77);"/><circle id="" cx="536.2834556416884" cy="227.42467322799718" r="18.40706394451029" style="fill: rgb(253, 190, 112);"/><circle id="" cx="455.57886418344305" cy="187.18724097002658" r="8.831270793787322" style="fill: rgb(240, 248, 169);"/><circle id="" cx="461.68061186368254" cy="258.8289695346082" r="5" style="fill: rgb(158, 1, 66);"/><circle id="" cx="459.7505594363009" cy="171.93177944530066" r="5" style="fill: rgb(190, 229, 160);"/><circle id="" cx="427.08787412530245" cy="264.8350880118038" r="5" style="fill: rgb(67, 143, 180);"/><circle id="" cx="448.2857932061619" cy="172.88460703614413" r="5" style="fill: rgb(94, 79, 162);"/><circle id="" cx="498.5430993385949" cy="212.4259495952036" r="20.22238648052659" style="fill: rgb(244, 125, 77);"/><circle id="" cx="502.09172064004986" cy="293.41281657453015" r="11.771108272115907" style="fill: rgb(253, 190, 112);"/><circle id="" cx="439.66059351546824" cy="222.74349137863342" r="8.831270793787322" style="fill: rgb(158, 1, 66);"/><circle id="" cx="398.89711908777053" cy="258.5646255430436" r="8.831270793787322" style="fill: rgb(94, 79, 162);"/><circle id="" cx="478.86725383888006" cy="231.22401905475243" r="5" style="fill: rgb(119, 198, 167);"/><circle id="" cx="523.0384657903413" cy="158.5900043109172" r="25" style="fill: rgb(253, 190, 112);"/><circle id="" cx="526.8597584532369" cy="265.07761168614843" r="18.40706394451029" style="fill: rgb(244, 125, 77);"/><circle id="" cx="445.8550047038841" cy="268.9130645509356" r="11.771108272115907" style="fill: rgb(119, 198, 167);"/><circle id="" cx="524.1721282944407" cy="194.8877232228508" r="8.831270793787322" style="fill: rgb(240, 248, 169);"/><circle id="" cx="479.9198905526294" cy="288.99803132695087" r="8.831270793787322" style="fill: rgb(94, 79, 162);"/><circle id="" cx="416.48145999125506" cy="150.96596345341217" r="5" style="fill: rgb(158, 1, 66);"/><circle id="" cx="462.4551860589867" cy="222.12165098615557" r="11.771108272115907" style="fill: rgb(244, 125, 77);"/><circle id="" cx="494.7223985804009" cy="181.3407563964191" r="8.831270793787322" style="fill: rgb(253, 190, 112);"/><circle id="" cx="474.29609801127737" cy="177.35971525587482" r="8.831270793787322" style="fill: rgb(119, 198, 167);"/><circle id="" cx="482.2128026850153" cy="191.0116922462282" r="5" style="fill: rgb(158, 1, 66);"/><circle id="" cx="492.28082206165243" cy="267.1588366705823" r="14.249505911485286" style="fill: rgb(253, 190, 112);"/><circle id="" cx="434.4000158727932" cy="160.2047172011921" r="11.771108272115907" style="fill: rgb(244, 125, 77);"/><circle id="" cx="425.4915269349714" cy="192.66405253400552" r="11.771108272115907" style="fill: rgb(94, 79, 162);"/><circle id="" cx="509.8459064673362" cy="241.29478116992027" r="8.831270793787322" style="fill: rgb(119, 198, 167);"/><circle id="" cx="448.5348377707399" cy="243.5258923640155" r="11.771108272115907" style="fill: rgb(253, 190, 112);"/><circle id="" cx="453.1263392309192" cy="146.23814868266456" r="8.831270793787322" style="fill: rgb(244, 125, 77);"/><circle id="" cx="467.97687178974246" cy="273.35265271808385" r="8.831270793787322" style="fill: rgb(254, 237, 161);"/><circle id="" cx="469.73592444214745" cy="200.75625949688254" r="8.831270793787322" style="fill: rgb(119, 198, 167);"/><circle id="" cx="468.34788332916906" cy="158.69802213750845" r="8.831270793787322" style="fill: rgb(244, 125, 77);"/><circle id="" cx="487.52053897751136" cy="162.80776693110695" r="8.831270793787322" style="fill: rgb(253, 190, 112);"/><circle id="" cx="452.9241091967603" cy="162.1049235201046" r="5" style="fill: rgb(244, 125, 77);"/><circle id="" cx="509.3043383994534" cy="187.4977078377345" r="5" style="fill: rgb(253, 190, 112);"/><circle id="" cx="470.99580235878494" cy="246.05028984000572" r="8.831270793787322" style="fill: rgb(253, 190, 112);"/><circle id="" cx="440.8036009148373" cy="181.80612562654713" r="5" style="fill: rgb(253, 190, 112);"/></g><g id="labels"><g id="" transform="translate(18.365754980958883,216.5365330321349)"><text x="0" y="0" text-anchor="middle" dominant-baseline="text-before-edge" transform="translate(0,0)"/></g><g id="" transform="translate(27.756845522703976,209.06575540197133)"><text x="0" y="0" text-anchor="middle" dominant-baseline="text-before-edge" transform="translate(0,0)"/></g><g id="" transform="translate(29.53116141158689,220.93407352166733)"><text x="0" y="0" text-anchor="middle" dominant-baseline="text-before-edge" transform="translate(0,0)"/></g><g id="" transform="translate(38.92225260353021,213.46363804422654)"><text x="0" y="0" text-anchor="middle" dominant-baseline="text-before-edge" transform="translate(0,0)"/></g><g id="" transform="translate(96.40166392325963,213.16690799099655)"><text x="0" y="0" text-anchor="middle" dominant-baseline="text-before-edge" transform="translate(0,0)"/></g><g id="" transform="translate(108.1412319677199,215.63553631567186)"><text x="0" y="0" text-anchor="middle" dominant-baseline="text-before-edge" transform="translate(0,0)"/></g><g id="" transform="translate(145.07539286171263,226.7602355321658)"><text x="0" y="0" text-anchor="middle" dominant-baseline="text-before-edge" transform="translate(0,0)"/></g><g id="" transform="translate(125.05580221376303,202.77427193889184)"><text x="0" y="0" text-anchor="middle" dominant-baseline="text-before-edge" transform="translate(0,0)"/></g><g id="" transform="translate(134.73400111864677,238.74155993645167)"><text x="0" y="0" text-anchor="middle" dominant-baseline="text-before-edge" transform="translate(0,0)"/></g><g id="" transform="translate(118.5624123831833,227.5512766838906)"><text x="0" y="0" text-anchor="middle" dominant-baseline="text-before-edge" transform="translate(0,0)"/></g><g id="" transform="translate(142.5233114201757,214.84453500000623)"><text x="0" y="0" text-anchor="middle" dominant-baseline="text-before-edge" transform="translate(0,0)"/></g><g id="" transform="translate(154.61326513951937,181.98015485798203)"><text x="0" y="0" text-anchor="middle" dominant-baseline="text-before-edge" transform="translate(0,0)"/></g><g id="" transform="translate(133.6979875233478,222.95010971010925)"><text x="0" y="0" text-anchor="middle" dominant-baseline="text-before-edge" transform="translate(0,0)"/></g><g id="" transform="translate(161.63483480601008,235.72233213928567)"><text x="0" y="0" text-anchor="middle" dominant-baseline="text-before-edge" transform="translate(0,0)"/></g><g id="" transform="translate(146.0315187676982,191.90070547403323)"><text x="0" y="0" text-anchor="middle" dominant-baseline="text-before-edge" transform="translate(0,0)"/></g><g id="" transform="translate(169.11682617413055,214.36745524808114)"><text x="0" y="0" text-anchor="middle" dominant-baseline="text-before-edge" transform="translate(0,0)"/></g><g id="" transform="translate(147.26651788824557,203.83946768708248)"><text x="0" y="0" text-anchor="middle" dominant-baseline="text-before-edge" transform="translate(0,0)"/></g><g id="" transform="translate(153.8778916875786,218.62478590922382)"><text x="0" y="0" text-anchor="middle" dominant-baseline="text-before-edge" transform="translate(0,0)"/></g><g id="" transform="translate(161.21920044420847,196.3640095820124)"><text x="0" y="0" text-anchor="middle" dominant-baseline="text-before-edge" transform="translate(0,0)"/></g><g id="" transform="translate(178.42254273797369,186.84286722994756)"><text x="0" y="0" text-anchor="middle" dominant-baseline="text-before-edge" transform="translate(0,0)"/></g><g id="" transform="translate(197.30646323537192,192.32405000082122)"><text x="0" y="0" text-anchor="middle" dominant-baseline="text-before-edge" transform="translate(0,0)"/></g><g id="" transform="translate(184.69163741814847,217.03857690438434)"><text x="0" y="0" text-anchor="middle" dominant-baseline="text-before-edge" transform="translate(0,0)"/></g><g id="" transform="translate(179.718081107416,202.6193922643194)"><text x="0" y="0" text-anchor="middle" dominant-baseline="text-before-edge" transform="translate(0,0)"/></g><g id="" transform="translate(196.6852099414959,217.43303206900703)"><text x="0" y="0" text-anchor="middle" dominant-baseline="text-before-edge" transform="translate(0,0)"/></g><g id="" transform="translate(202.9383497387242,207.18980385552302)"><text x="0" y="0" text-anchor="middle" dominant-baseline="text-before-edge" transform="translate(0,0)"/></g><g id="" transform="translate(183.86746947333572,242.05941460718324)"><text x="0" y="0" text-anchor="middle" dominant-baseline="text-before-edge" transform="translate(0,0)"/></g><g id="" transform="translate(190.34815943960007,227.61256303435357)"><text x="0" y="0" text-anchor="middle" dominant-baseline="text-before-edge" transform="translate(0,0)"/></g><g id="" transform="translate(203.6591355094097,236.180642792055)"><text x="0" y="0" text-anchor="middle" dominant-baseline="text-before-edge" transform="translate(0,0)"/></g><g id="" transform="translate(178.36203550344536,227.21482945443054)"><text x="0" y="0" text-anchor="middle" dominant-baseline="text-before-edge" transform="translate(0,0)"/></g><g id="" transform="translate(221.8960833380452,228.8266467826312)"><text x="0" y="0" text-anchor="middle" dominant-baseline="text-before-edge" transform="translate(0,0)"/></g><g id="" transform="translate(226.04928034392185,213.5501009820718)"><text x="0" y="0" text-anchor="middle" dominant-baseline="text-before-edge" transform="translate(0,0)"/></g><g id="" transform="translate(190.95268362962645,206.81256179120268)"><text x="0" y="0" text-anchor="middle" dominant-baseline="text-before-edge" transform="translate(0,0)"/></g><g id="" transform="translate(211.7468063496342,199.04853562912982)"><text x="0" y="0" text-anchor="middle" dominant-baseline="text-before-edge" transform="translate(0,0)"/></g><g id="" transform="translate(212.23540362906303,187.06010876065594)"><text x="0" y="0" text-anchor="middle" dominant-baseline="text-before-edge" transform="translate(0,0)"/></g><g id="" transform="translate(208.1368857407879,220.99586780807974)"><text x="0" y="0" text-anchor="middle" dominant-baseline="text-before-edge" transform="translate(0,0)"/></g><g id="" transform="translate(214.38541104651694,210.75106760572388)"><text x="0" y="0" text-anchor="middle" dominant-baseline="text-before-edge" transform="translate(0,0)"/></g><g id="" transform="translate(223.4171391754988,201.84238969298892)"><text x="0" y="0" text-anchor="middle" dominant-baseline="text-before-edge" transform="translate(0,0)"/></g><g id="" transform="translate(240.9645166590358,218.83507654672442)"><text x="0" y="0" text-anchor="middle" dominant-baseline="text-before-edge" transform="translate(0,0)"/></g><g id="" transform="translate(297.9293320509415,215.0136194478956)"><text x="0" y="0" text-anchor="middle" dominant-baseline="text-before-edge" transform="translate(0,0)"/></g><g id="" transform="translate(343.8574961353795,224.6215146563445)"><text x="0" y="0" text-anchor="middle" dominant-baseline="text-before-edge" transform="translate(0,0)"/></g><g id="" transform="translate(335.15733301495084,232.88962625182742)"><text x="0" y="0" text-anchor="middle" dominant-baseline="text-before-edge" transform="translate(0,0)"/></g><g id="" transform="translate(355.9483513356178,228.65288589887368)"><text x="0" y="0" text-anchor="middle" dominant-baseline="text-before-edge" transform="translate(0,0)"/></g><g id="" transform="translate(445.1337877997568,203.86398756218944)"><text x="0" y="0" text-anchor="middle" dominant-baseline="text-before-edge" transform="translate(0,0)"/></g><g id="" transform="translate(346.65791765533555,236.26859895925887)"><text x="0" y="0" text-anchor="middle" dominant-baseline="text-before-edge" transform="translate(0,0)"/></g><g id="" transform="translate(335.31002495438787,216.20999742202943)"><text x="0" y="0" text-anchor="middle" dominant-baseline="text-before-edge" transform="translate(0,0)"/></g><g id="" transform="translate(347.2508661885908,251.83830642690998)"><text x="0" y="0" text-anchor="middle" dominant-baseline="text-before-edge" transform="translate(0,0)"/></g><g id="" transform="translate(356.0399214164032,243.71324492822967)"><text x="0" y="0" text-anchor="middle" dominant-baseline="text-before-edge" transform="translate(0,0)"/></g><g id="" transform="translate(410.1493660788213,173.03933526226714)"><text x="0" y="0" text-anchor="middle" dominant-baseline="text-before-edge" transform="translate(0,0)"/></g><g id="" transform="translate(402.708733769721,134.46600323747776)"><text x="0" y="0" text-anchor="middle" dominant-baseline="text-before-edge" transform="translate(0,0)"/></g><g id="" transform="translate(383.64853798214835,211.08879410683772)"><text x="0" y="0" text-anchor="middle" dominant-baseline="text-before-edge" transform="translate(0,0)"/></g><g id="" transform="translate(361.5898287766918,258.53958074901806)"><text x="0" y="0" text-anchor="middle" dominant-baseline="text-before-edge" transform="translate(0,0)"/></g><g id="" transform="translate(413.21161234652897,211.51660793988157)"><text x="0" y="0" text-anchor="middle" dominant-baseline="text-before-edge" transform="translate(0,0)"/></g><g id="" transform="translate(415.53719776496337,261.71322380356105)"><text x="0" y="0" text-anchor="middle" dominant-baseline="text-before-edge" transform="translate(0,0)"/></g><g id="" transform="translate(358.2206245211699,201.5278712658944)"><text x="0" y="0" text-anchor="middle" dominant-baseline="text-before-edge" transform="translate(0,0)"/></g><g id="" transform="translate(359.02384319262154,274.1538028277707)"><text x="0" y="0" text-anchor="middle" dominant-baseline="text-before-edge" transform="translate(0,0)"/></g><g id="" transform="translate(408.1888470000842,271.15470720208464)"><text x="0" y="0" text-anchor="middle" dominant-baseline="text-before-edge" transform="translate(0,0)"/></g><g id="" transform="translate(380.2498498626129,236.0388642720856)"><text x="0" y="0" text-anchor="middle" dominant-baseline="text-before-edge" transform="translate(0,0)"/></g><g id="" transform="translate(395.38781293290805,190.9148529349949)"><text x="0" y="0" text-anchor="middle" dominant-baseline="text-before-edge" transform="translate(0,0)"/></g><g id="" transform="translate(400.76027285546286,296.3843969798425)"><text x="0" y="0" text-anchor="middle" dominant-baseline="text-before-edge" transform="translate(0,0)"/></g><g id="" transform="translate(414.1520792430799,304.8191842901887)"><text x="0" y="0" text-anchor="middle" dominant-baseline="text-before-edge" transform="translate(0,0)"/></g><g id="" transform="translate(400.82999659218007,280.55897868820824)"><text x="0" y="0" text-anchor="middle" dominant-baseline="text-before-edge" transform="translate(0,0)"/></g><g id="" transform="translate(417.1358075349449,238.3272101801999)"><text x="0" y="0" text-anchor="middle" dominant-baseline="text-before-edge" transform="translate(0,0)"/></g><g id="" transform="translate(423.4567004470911,285.72185911767053)"><text x="0" y="0" text-anchor="middle" dominant-baseline="text-before-edge" transform="translate(0,0)"/></g><g id="" transform="translate(429.0265838448965,211.05252334516007)"><text x="0" y="0" text-anchor="middle" dominant-baseline="text-before-edge" transform="translate(0,0)"/></g><g id="" transform="translate(415.9160021708287,162.93093612538738)"><text x="0" y="0" text-anchor="middle" dominant-baseline="text-before-edge" transform="translate(0,0)"/></g><g id="" transform="translate(393.6726605463622,156.07992899338157)"><text x="0" y="0" text-anchor="middle" dominant-baseline="text-before-edge" transform="translate(0,0)"/></g><g id="" transform="translate(433.2017834634858,311.98235430828186)"><text x="0" y="0" text-anchor="middle" dominant-baseline="text-before-edge" transform="translate(0,0)"/></g><g id="" transform="translate(454.25656688484884,320.21277722695606)"><text x="0" y="0" text-anchor="middle" dominant-baseline="text-before-edge" transform="translate(0,0)"/></g><g id="" transform="translate(476.92478397718895,308.41335589678675)"><text x="0" y="0" text-anchor="middle" dominant-baseline="text-before-edge" transform="translate(0,0)"/></g><g id="" transform="translate(422.02029276013735,174.2136549032159)"><text x="0" y="0" text-anchor="middle" dominant-baseline="text-before-edge" transform="translate(0,0)"/></g><g id="" transform="translate(433.5620381935756,254.75170438856088)"><text x="0" y="0" text-anchor="middle" dominant-baseline="text-before-edge" transform="translate(0,0)"/></g><g id="" transform="translate(428.83578376031807,126.69975168719084)"><text x="0" y="0" text-anchor="middle" dominant-baseline="text-before-edge" transform="translate(0,0)"/></g><g id="" transform="translate(380.2318383840374,275.317316081027)"><text x="0" y="0" text-anchor="middle" dominant-baseline="text-before-edge" transform="translate(0,0)"/></g><g id="" transform="translate(455.6240628967684,295.1832285668881)"><text x="0" y="0" text-anchor="middle" dominant-baseline="text-before-edge" transform="translate(0,0)"/></g><g id="" transform="translate(373.59241112409234,174.5239340838489)"><text x="0" y="0" text-anchor="middle" dominant-baseline="text-before-edge" transform="translate(0,0)"/></g><g id="" transform="translate(490.21976341775934,242.25131371493305)"><text x="0" y="0" text-anchor="middle" dominant-baseline="text-before-edge" transform="translate(0,0)"/></g><g id="" transform="translate(400.9937208561486,221.36988454659965)"><text x="0" y="0" text-anchor="middle" dominant-baseline="text-before-edge" transform="translate(0,0)"/></g><g id="" transform="translate(481.4680366481972,128.79286243591113)"><text x="0" y="0" text-anchor="middle" dominant-baseline="text-before-edge" transform="translate(0,0)"/></g><g id="" transform="translate(536.2834556416884,227.42467322799718)"><text x="0" y="0" text-anchor="middle" dominant-baseline="text-before-edge" transform="translate(0,0)"/></g><g id="" transform="translate(455.57886418344305,187.18724097002658)"><text x="0" y="0" text-anchor="middle" dominant-baseline="text-before-edge" transform="translate(0,0)"/></g><g id="" transform="translate(461.68061186368254,258.8289695346082)"><text x="0" y="0" text-anchor="middle" dominant-baseline="text-before-edge" transform="translate(0,0)"/></g><g id="" transform="translate(459.7505594363009,171.93177944530066)"><text x="0" y="0" text-anchor="middle" dominant-baseline="text-before-edge" transform="translate(0,0)"/></g><g id="" transform="translate(427.08787412530245,264.8350880118038)"><text x="0" y="0" text-anchor="middle" dominant-baseline="text-before-edge" transform="translate(0,0)"/></g><g id="" transform="translate(448.2857932061619,172.88460703614413)"><text x="0" y="0" text-anchor="middle" dominant-baseline="text-before-edge" transform="translate(0,0)"/></g><g id="" transform="translate(498.5430993385949,212.4259495952036)"><text x="0" y="0" text-anchor="middle" dominant-baseline="text-before-edge" transform="translate(0,0)"/></g><g id="" transform="translate(502.09172064004986,293.41281657453015)"><text x="0" y="0" text-anchor="middle" dominant-baseline="text-before-edge" transform="translate(0,0)"/></g><g id="" transform="translate(439.66059351546824,222.74349137863342)"><text x="0" y="0" text-anchor="middle" dominant-baseline="text-before-edge" transform="translate(0,0)"/></g><g id="" transform="translate(398.89711908777053,258.5646255430436)"><text x="0" y="0" text-anchor="middle" dominant-baseline="text-before-edge" transform="translate(0,0)"/></g><g id="" transform="translate(478.86725383888006,231.22401905475243)"><text x="0" y="0" text-anchor="middle" dominant-baseline="text-before-edge" transform="translate(0,0)"/></g><g id="" transform="translate(523.0384657903413,158.5900043109172)"><text x="0" y="0" text-anchor="middle" dominant-baseline="text-before-edge" transform="translate(0,0)"/></g><g id="" transform="translate(526.8597584532369,265.07761168614843)"><text x="0" y="0" text-anchor="middle" dominant-baseline="text-before-edge" transform="translate(0,0)"/></g><g id="" transform="translate(445.8550047038841,268.9130645509356)"><text x="0" y="0" text-anchor="middle" dominant-baseline="text-before-edge" transform="translate(0,0)"/></g><g id="" transform="translate(524.1721282944407,194.8877232228508)"><text x="0" y="0" text-anchor="middle" dominant-baseline="text-before-edge" transform="translate(0,0)"/></g><g id="" transform="translate(479.9198905526294,288.99803132695087)"><text x="0" y="0" text-anchor="middle" dominant-baseline="text-before-edge" transform="translate(0,0)"/></g><g id="" transform="translate(416.48145999125506,150.96596345341217)"><text x="0" y="0" text-anchor="middle" dominant-baseline="text-before-edge" transform="translate(0,0)"/></g><g id="" transform="translate(462.4551860589867,222.12165098615557)"><text x="0" y="0" text-anchor="middle" dominant-baseline="text-before-edge" transform="translate(0,0)"/></g><g id="" transform="translate(494.7223985804009,181.3407563964191)"><text x="0" y="0" text-anchor="middle" dominant-baseline="text-before-edge" transform="translate(0,0)"/></g><g id="" transform="translate(474.29609801127737,177.35971525587482)"><text x="0" y="0" text-anchor="middle" dominant-baseline="text-before-edge" transform="translate(0,0)"/></g><g id="" transform="translate(482.2128026850153,191.0116922462282)"><text x="0" y="0" text-anchor="middle" dominant-baseline="text-before-edge" transform="translate(0,0)"/></g><g id="" transform="translate(492.28082206165243,267.1588366705823)"><text x="0" y="0" text-anchor="middle" dominant-baseline="text-before-edge" transform="translate(0,0)"/></g><g id="" transform="translate(434.4000158727932,160.2047172011921)"><text x="0" y="0" text-anchor="middle" dominant-baseline="text-before-edge" transform="translate(0,0)"/></g><g id="" transform="translate(425.4915269349714,192.66405253400552)"><text x="0" y="0" text-anchor="middle" dominant-baseline="text-before-edge" transform="translate(0,0)"/></g><g id="" transform="translate(509.8459064673362,241.29478116992027)"><text x="0" y="0" text-anchor="middle" dominant-baseline="text-before-edge" transform="translate(0,0)"/></g><g id="" transform="translate(448.5348377707399,243.5258923640155)"><text x="0" y="0" text-anchor="middle" dominant-baseline="text-before-edge" transform="translate(0,0)"/></g><g id="" transform="translate(453.1263392309192,146.23814868266456)"><text x="0" y="0" text-anchor="middle" dominant-baseline="text-before-edge" transform="translate(0,0)"/></g><g id="" transform="translate(467.97687178974246,273.35265271808385)"><text x="0" y="0" text-anchor="middle" dominant-baseline="text-before-edge" transform="translate(0,0)"/></g><g id="" transform="translate(469.73592444214745,200.75625949688254)"><text x="0" y="0" text-anchor="middle" dominant-baseline="text-before-edge" transform="translate(0,0)"/></g><g id="" transform="translate(468.34788332916906,158.69802213750845)"><text x="0" y="0" text-anchor="middle" dominant-baseline="text-before-edge" transform="translate(0,0)"/></g><g id="" transform="translate(487.52053897751136,162.80776693110695)"><text x="0" y="0" text-anchor="middle" dominant-baseline="text-before-edge" transform="translate(0,0)"/></g><g id="" transform="translate(452.9241091967603,162.1049235201046)"><text x="0" y="0" text-anchor="middle" dominant-baseline="text-before-edge" transform="translate(0,0)"/></g><g id="" transform="translate(509.3043383994534,187.4977078377345)"><text x="0" y="0" text-anchor="middle" dominant-baseline="text-before-edge" transform="translate(0,0)"/></g><g id="" transform="translate(470.99580235878494,246.05028984000572)"><text x="0" y="0" text-anchor="middle" dominant-baseline="text-before-edge" transform="translate(0,0)"/></g><g id="" transform="translate(440.8036009148373,181.80612562654713)"><text x="0" y="0" text-anchor="middle" dominant-baseline="text-before-edge" transform="translate(0,0)"/></g></g></g></g></g><g id="legend" transform="translate(620,10)"><g transform="translate(5,0)"><g class="legendSize" transform="translate(0,0)"><g class="legendCells" transform="translate(25,16)"><g class="cell" transform="translate(0, 5)"></g><g class="cell" transform="translate(0, 46)"></g></g><text class="legendTitle" font-family="&quot;Arial&quot;, sans-serif" font-size="12px" font-weight="bold"><tspan x="0" dy="0em"></tspan></text></g><g class="legendColor" transform="translate(0,119.80000305175781)"><g class="legendCells" transform="translate(0,16)"><g class="cell" transform="translate(0, 0)"><rect class="swatch" height="15" width="15" style="fill: rgb(158, 1, 66);"/><text class="label" transform="translate( 20, 12.5)" font-family="&quot;Arial&quot;, sans-serif" font-size="10px"><tspan x="0" dy="0em">Ciencia Ficción</tspan></text></g><g class="cell" transform="translate(0, 21)"><rect class="swatch" height="15" width="15" style="fill: rgb(214, 66, 75);"/><text class="label" transform="translate( 20, 12.5)" font-family="&quot;Arial&quot;, sans-serif" font-size="10px"><tspan x="0" dy="0em">Clásico</tspan></text></g><g class="cell" transform="translate(0, 42)"><rect class="swatch" height="15" width="15" style="fill: rgb(244, 125, 77);"/><text class="label" transform="translate( 20, 12.5)" font-family="&quot;Arial&quot;, sans-serif" font-size="10px"><tspan x="0" dy="0em">Contemporaneo</tspan></text></g><g class="cell" transform="translate(0, 63)"><rect class="swatch" height="15" width="15" style="fill: rgb(253, 190, 112);"/><text class="label" transform="translate( 20, 12.5)" font-family="&quot;Arial&quot;, sans-serif" font-size="10px"><tspan x="0" dy="0em">Fantasia</tspan></text></g><g class="cell" transform="translate(0, 84)"><rect class="swatch" height="15" width="15" style="fill: rgb(254, 237, 161);"/><text class="label" transform="translate( 20, 12.5)" font-family="&quot;Arial&quot;, sans-serif" font-size="10px"><tspan x="0" dy="0em">Ficción</tspan></text></g><g class="cell" transform="translate(0, 105)"><rect class="swatch" height="15" width="15" style="fill: rgb(240, 248, 169);"/><text class="label" transform="translate( 20, 12.5)" font-family="&quot;Arial&quot;, sans-serif" font-size="10px"><tspan x="0" dy="0em">Ficción Histórica</tspan></text></g><g class="cell" transform="translate(0, 126)"><rect class="swatch" height="15" width="15" style="fill: rgb(190, 229, 160);"/><text class="label" transform="translate( 20, 12.5)" font-family="&quot;Arial&quot;, sans-serif" font-size="10px"><tspan x="0" dy="0em">Misterio</tspan></text></g><g class="cell" transform="translate(0, 147)"><rect class="swatch" height="15" width="15" style="fill: rgb(119, 198, 167);"/><text class="label" transform="translate( 20, 12.5)" font-family="&quot;Arial&quot;, sans-serif" font-size="10px"><tspan x="0" dy="0em">Novela Gráfica</tspan></text></g><g class="cell" transform="translate(0, 168)"><rect class="swatch" height="15" width="15" style="fill: rgb(67, 143, 180);"/><text class="label" transform="translate( 20, 12.5)" font-family="&quot;Arial&quot;, sans-serif" font-size="10px"><tspan x="0" dy="0em">Paranormal</tspan></text></g><g class="cell" transform="translate(0, 189)"><rect class="swatch" height="15" width="15" style="fill: rgb(94, 79, 162);"/><text class="label" transform="translate( 20, 12.5)" font-family="&quot;Arial&quot;, sans-serif" font-size="10px"><tspan x="0" dy="0em">Realismo Mágico</tspan></text></g></g><text class="legendTitle" font-family="&quot;Arial&quot;, sans-serif" font-size="12px" font-weight="bold"><tspan x="0" dy="0em">Genero</tspan></text></g></g></g></svg>